<?xml version="1.0" encoding="utf-8"?>
<!-- Generator: Adobe Illustrator 16.0.0, SVG Export Plug-In . SVG Version: 6.00 Build 0)  -->
<!DOCTYPE svg PUBLIC "-//W3C//DTD SVG 1.1//EN" "http://www.w3.org/Graphics/SVG/1.1/DTD/svg11.dtd">
<svg version="1.1" id="Layer_1" xmlns="http://www.w3.org/2000/svg" xmlns:xlink="http://www.w3.org/1999/xlink" x="0px" y="0px"
	 width="603.234px" height="792.55px" viewBox="0 0 603.234 792.55" enable-background="new 0 0 603.234 792.55"
	 xml:space="preserve">
<path fill-rule="evenodd" clip-rule="evenodd" d="M1,782.79c0.21-0.691,0.585-1.379,0.605-2.075
	c0.266-9.609,0.243-19.233,0.778-28.826c0.541-9.677,1.497-19.338,2.505-28.981c0.949-9.073,1.906-18.163,3.391-27.158
	c2.24-13.574,4.622-27.14,7.512-40.587c6.47-30.111,15.606-59.443,26.633-88.195c0.443-1.155,0.388-2.838-0.117-3.972
	c-6.503-14.607-11.864-29.628-14.596-45.381c-2.02-11.648-3.577-23.452-4.202-35.246c-0.598-11.295-0.437-22.736,0.632-33.995
	c2.988-31.464,11.824-61.205,27.958-88.595c8.467-14.374,18.473-27.569,30.596-39.008c22.609-21.333,48.945-36.01,79.532-42.221
	c11.143-2.264,22.591-3.033,33.907-4.429c1.155-0.143,2.356,0.094,3.7,0.162c0,3.585,0,6.929,0,10.404
	c-4.527,0.317-9.05,0.632-13.573,0.954c-18.018,1.284-35.209,5.779-51.717,13.087c-22.666,10.032-41.697,24.874-57.377,43.907
	c-17.965,21.806-29.825,46.762-36.762,74.107c-5.506,21.705-7.549,43.789-6.455,66.084c1.065,21.688,5.353,42.818,13.056,63.188
	c0.422,1.116,0.896,2.215,1.375,3.308c0.065,0.148,0.308,0.218,0.783,0.531c1.591-3.44,3.217-6.81,4.722-10.233
	c21.967-49.982,49.72-96.627,82.373-140.272c16.579-22.16,34.209-43.568,52.058-64.73c13.375-15.86,27.552-31.081,41.928-46.051
	c17.869-18.606,36.067-36.914,54.581-54.88c16.613-16.122,33.798-31.658,50.818-47.356c12.922-11.917,25.982-23.683,38.985-35.512
	c2.584-2.351,5.033-4.891,7.829-6.958c2.23-1.649,2.713-3.55,2.776-6.147c0.443-18.192,1.675-36.297,6.486-53.981
	c0.739-2.716,1.818-4.071,4.845-3.668c2.245,0.3,4.562,0.059,7.365,0.059c-5.078,16.802-7.403,33.628-7.634,51.568
	c2.473-2.253,4.519-4.07,6.513-5.941c12.111-11.355,24.464-22.466,36.246-34.154c13.951-13.839,25.387-29.625,32.593-48.03
	c2.417-6.174,4.295-12.965,4.457-19.522c0.249-10.15-4.307-14.65-16.889-12.552c-8.089,1.349-14.657,5.861-20.77,11.059
	c-9.348,7.95-16.38,17.738-22.218,28.422c-0.9,1.646-1.793,2.359-3.689,2.254c-3.025-0.167-6.067-0.044-10.101-0.044
	c3.904-6.548,7.179-12.655,11.029-18.375c8.888-13.209,19.595-24.582,34.564-30.974c4.216-1.8,8.867-2.583,13.317-3.833
	c1.97,0,3.939,0,5.91,0c1.963,0.516,3.969,0.908,5.881,1.568c8.309,2.868,13.71,11.052,13.804,20.937
	c0.118,12.383-3.905,23.689-9.456,34.49c-11.469,22.323-27.609,40.868-46.441,57.282c-10.703,9.328-20.972,19.153-31.565,28.611
	c-1.98,1.768-2.047,3.742-1.785,5.872c1.075,8.739,1.89,17.535,3.5,26.179c3.39,18.208,7.059,36.368,10.916,54.484
	c3.832,17.993,8.239,35.865,12.018,53.869c3.893,18.553,7.597,37.153,10.884,55.82c2.391,13.578,4.223,27.27,5.824,40.968
	c1.125,9.628,1.552,19.346,2.089,29.035c0.503,9.049,1.071,18.114,1.035,27.17c-0.138,33.956-4.813,67.147-17.438,98.922
	c-9.029,22.726-21.142,43.565-37.315,62.012c-28.958,33.028-65.215,54.004-107.326,65.412c-2.402,0.651-4.8,1.32-7.211,1.938
	c-0.393,0.101-0.843-0.021-1.52-0.053c-0.584-3.31-1.16-6.57-1.763-9.98c16.462-4.203,31.215-11.432,45.056-20.513
	c24.623-16.155,44.093-37.203,58.595-62.814c13.583-23.987,22.549-49.663,27.926-76.667c3.275-16.447,5.774-33.015,5.964-49.765
	c0.224-19.758-0.253-39.53-0.777-59.288c-0.313-11.777-1.125-23.55-2.034-35.3c-0.799-10.312-2.034-20.591-3.101-30.882
	c-0.897-8.657-1.75-17.319-2.765-25.962c-1.142-9.717-2.455-19.412-3.678-29.119c-1.182-9.387-2.338-18.776-3.516-28.164
	c-1.015-8.089-2.092-16.17-3.049-24.266c-0.806-6.808-1.571-13.623-2.189-20.449c-1.038-11.468-1.944-22.946-2.938-34.808
	c-1.409,1.097-2.643,1.942-3.743,2.935c-7.543,6.806-15.084,13.617-22.579,20.476c-11.445,10.474-22.897,20.939-34.264,31.496
	c-11.049,10.259-22.138,20.482-32.952,30.985c-14.982,14.55-30.004,29.076-44.49,44.112c-14.767,15.328-29.135,31.057-43.25,46.99
	c-12.732,14.374-25.233,28.983-37.223,43.979c-28.45,35.58-54.058,73.11-76.121,113.022c-12.395,22.423-23.375,45.504-33.259,69.131
	c-1.415,3.383-1.428,6.076,0.398,9.412c25.29,46.211,63.474,75.633,114.607,88.103c7.347,1.791,14.986,2.415,22.511,3.427
	c1.927,0.259,2.503,1.059,2.059,2.782c-0.648,2.513-1.36,5.01-2.174,7.981c-30.209-2.502-57.936-12.086-83.509-28.376
	c-25.615-16.316-45.072-38.461-61.398-64.961c-3.947,11.999-7.604,22.835-11.075,33.731c-7.938,24.913-13.786,50.349-18.193,76.094
	c-2.088,12.202-3.36,24.549-4.774,36.857c-2.343,20.401-3.412,40.879-3.311,61.419c0.02,4.116-1.758,6.655-4.974,6.936
	c-3.526,0.308-5.267-1.934-6.169-5.029C1,786.292,1,784.541,1,782.79z"/>
<path fill-rule="evenodd" clip-rule="evenodd" d="M149.839,705.983c6-0.668,11.737-1.126,17.417-1.971
	c18.552-2.757,30.029-13.655,35.301-31.353c3.591-12.053,5.193-24.489,5.238-36.999c0.345-97.597,0.496-195.194,0.813-292.792
	c0.005-1.712,0.915-3.788,2.084-5.074c14.993-16.477,30.108-32.841,45.197-49.231c1.253-1.362,2.532-2.701,4.457-4.753
	c0,33.508,0,66.105,0,98.974c18.785,0,37.126,0,55.725,0c0.562,2.702,1.08,5.192,1.717,8.252c-19.285,0-38.122,0-57.359,0
	c0,1.659,0,2.825,0,3.991c-0.001,72.224-0.184,144.449,0.124,216.672c0.077,17.939,0.447,36.006,4.523,53.635
	c1.405,6.074,3.373,12.16,6.071,17.766c5.743,11.928,15.903,18.449,28.688,20.817c5.951,1.102,12.042,1.45,18.216,2.157
	c0,2.26,0,4.642,0,7.542c-1.412,0-2.783,0-4.154,0c-52.964,0.004-105.929,0.019-158.894-0.006c-5.879-0.002-5.283,0.989-5.317-5.486
	C149.684,707.473,149.776,706.823,149.839,705.983z"/>
<path fill-rule="evenodd" clip-rule="evenodd" d="M603.234,211.77c-3.813,1.158-5.502-0.213-6.979-3.469
	c-11.283-24.88-25.098-48.256-42.496-69.392c-17.51-21.27-37.865-39.148-62.761-51.399c-5.717-2.813-11.688-5.113-17.421-7.596
	c3.343-5.664,6.601-11.423,10.16-16.989c0.611-0.956,2.509-1.521,3.818-1.53c14.985-0.105,29.971-0.068,44.958-0.068
	c9.845,0,19.692,0.134,29.533-0.084c2.811-0.063,3.719,1.002,4.333,3.451c7.164,28.55,14.407,57.08,21.628,85.616
	c4.99,19.723,9.979,39.445,14.952,59.173C603.145,210.208,603.145,210.981,603.234,211.77z"/>
<path fill-rule="evenodd" clip-rule="evenodd" d="M491.329,500.299c-1.802,0-3.418,0-5.68,0c0-3.772,0.17-7.467-0.027-11.142
	c-1.2-22.346-5.845-43.729-19.05-62.333c-3.82-5.381-8.872-9.881-13.291-14.845c-0.777-0.873-1.644-2.005-1.746-3.086
	c-0.978-10.409-1.792-20.834-2.675-31.253c-0.174-2.058-0.078-4.237-0.749-6.134c-1.292-3.656,0.532-5.285,3.197-7.338
	c14.286-11.002,23.161-25.716,28.41-42.764c4.287-13.923,6.057-28.225,6.188-42.757c0.011-1.086,0.002-2.173,0.002-3.644
	c1.843-0.103,3.512-0.195,5.421-0.302C491.329,349.995,491.329,424.977,491.329,500.299z"/>
<path fill-rule="evenodd" clip-rule="evenodd" d="M269.754,289.139c6.193,4.123,12.704,7.845,18.524,12.439
	c24.757,19.544,39.019,45.674,46.201,75.903c3.667,15.437,5.02,31.232,3.98,47.072c-1.38,21.018-5.881,41.229-17.623,59.219
	c-1.127,1.729-2.282,3.443-3.49,5.118c-2.21,3.067-5.625,3.965-8.205,2.214c-2.681-1.819-3.166-5.125-0.73-8.309
	c8.836-11.553,13.884-24.745,16.719-38.813c2.678-13.292,3.582-26.696,2.362-40.304c-1.396-15.568-4.339-30.701-10.315-45.17
	c-9.701-23.484-24.474-42.764-46.57-55.968c-0.827-0.494-1.562-1.815-1.623-2.796c-0.202-3.265-0.077-6.549-0.077-9.826
	C269.189,289.66,269.471,289.399,269.754,289.139z"/>
<path fill-rule="evenodd" clip-rule="evenodd" d="M399.997,382.917c0,2.608,0,5.489,0,8.263c-18.127,0-36.241,0-54.538,0
	c-0.559-2.735-1.072-5.243-1.69-8.263C362.532,382.917,381.128,382.917,399.997,382.917z"/>
<path fill-rule="evenodd" clip-rule="evenodd" d="M208.525,299.06c0-1.531,0-2.696,0-3.861c-0.013-47.61,0.208-95.223-0.165-142.83
	c-0.13-16.611-0.852-33.295-5.61-49.478c-6.115-20.794-19.558-30.646-41.024-32.628c-3.891-0.359-7.789-0.644-11.684-0.963
	c-0.064-0.089-0.172-0.172-0.185-0.268c-1.041-7.705-1.04-7.705,6.514-7.705c97.301,0,194.601,0,291.901,0c1.393,0,2.785,0,5.08,0
	c-3.09,4.137-5.373,8.01-8.507,10.984c-1.254,1.191-4.389,0.571-6.658,0.486c-4.353-0.162-8.697-0.767-13.045-0.776
	c-35.352-0.069-70.705-0.053-106.057-0.037c-9.938,0.004-19.773,0.749-29.164,4.427c-12.876,5.043-19.818,15.173-23.501,27.868
	c-3.041,10.48-4.535,21.273-4.694,32.177c-0.516,35.426-0.899,70.854-1.245,106.282c-0.022,2.253-0.66,3.808-2.234,5.419
	c-16.277,16.655-32.467,33.395-48.686,50.107C209.365,298.466,209.112,298.613,208.525,299.06z"/>
</svg>
